<?xml version="1.0" encoding="UTF-8"?>
<svg version="1.1" viewBox="0 0 1080 1080" width="1280" height="1280" xmlns="http://www.w3.org/2000/svg">
<path transform="translate(560,12)" d="m0 0 9 1 15 5 11 5 11 6 11 7 9 6 3 1v2l17-1 19-2h10l7-1h32l22 3 21 6 9 4 15 6 9 4 9-2 16-6 19-5h7l10 4 6 5 3 7 3 24v5l-3 9 2 7 2 3v3l3 1 10 14 7 10 6 11 6 10 8 21 3 9 4 35v22l-2 32 3 5 6 4 4 3 5 3 4 6 1 4v13l-4 15-5 9-7 10-5 4-12 4h-22l-3-1h-8l-7 4-8 5-6 8-3 15-4 5-1 7 1 12 5 9 6 8 6 3h11l9-5 16-13 12-8 11-10 3-7 5-5 4-7 1-26-1-4 5-7 7-17 6-12 6-3 16 1 12 6 5 6 4 5h6l10-6 8-2 11 1 8 5 6 7 4 7 1 6 4 4 8 4 6 5 6 9-1 17-1 7 2 9-1 11-4 9-3 5-5 5-12 9-8 4-9 3-6 4-7 11-10 18-4 7-7 12-8 13-6 11-9 14-9 12h-2v2h-2l-1 4-4 4-4 7-5 8-1 4h-2l-1 5-9 10-7 5-16 6-12 3-19 4-17 1-15-2h-7l-10 4-9 2-2 4-5 14-5 12-5 18-5 17-4 11-5 16-5 12-7 21-4 10-4 20-3 10-7 23-3 13-6 20-5 12-7 14-6 10-6 8-9 11-4 2-2 4h-2l-2 4h-2l-1 3-12 9-9 5-12 5-11 5-14 4-5 2-11 2-11 7-9 7-6 10-3 7-4 18-6 18-3 6-1 5h-2l-1 6-5 12-7 11-4 6h-2l-1 3-10 7-9 4-9 2h-18l-10-2-10-5-10-8-5-5-7-9-8-16-2-3-2-8-1-14v-28l-3-6-3-14-1-8v-10l2-14 3-12 8-16 11-16 7-8 12-12 4-3h2l2-4 10-9 9-6 5-3 5 1 10-4 3-1 1-3 5-4 2-7-4-19-5-7-3-1h-11l-12 4-12 8-15 13-5 4-6 7-11 6-14 14-13 9-12 6-20 4-10 4-11 8-7 7-5 7-6 15-5 5-1 2h-2l-2 4-8 10-13 12-11 4-7 6-7 18-4 6-9 6-8 4-8 3-13 2h-11l-2-1-10-1-7-2v-2l-6-1-9-6-6-5v-2l-4-2-9-12-7-15-2-5-2-11v-18l2-16 10-27 8-16 10-18 8-12 5-8 14-14 8-7h2l1-3 9-7 12-9 13-11h2l5-15 3-19 2-14 3-11v-10l-11-3-7-2-18-2-17-5-2-2-8-3-13-8-14-10v-2l-5-2-2-1v-2l-5-2-11-9-7-8-8-11-5-8-8-14-12-27-8-20-5-15-2-10-8-17-5-9-8-11-6-5-4-4-11-9-5-6-3-3-3-6v-28l3-6 5-4 5-5 9-4 8-1 17 3 10 3 18 10 11 9 9 9 4 7 7 8 3 4v2h2l10 16 4 5 4 6 7 11 2 1 2 7 6 7 5 11 4 12 7 8 6 10 7 8 10 7 12 9 5 6 11 7 16 7 14 4h15l8-6 4-9 8-15 6-15 7-14 5-12 5-5 5-8 4-10 1-14-2-9-4-6-13-5-11-7-23-10-14-6-10-7-7-5-5-2-5-5-10-14-7-10-2-4-2-9-1-18-4-21-5-33-3-16-1-7-4-19-6-7-12-7v-2l-5-2-5-5-7-8-5-8v-3l-2-1-2-6-1-7v-10l6-12 7-6 4-2 1-8 6-11 7-6 8-3h12l2 1 9 1 1-5 8-9 8-3 10 1 14 7 7 6 11-2 10 3 4 2 5 6 5 13v10l1 3v8l-1 6-1 8 3 9 2 7 4 16 2 6 4 13 7 15 7 13 10 15 5 5 17 8 20 7 8 4 6 2 6-3 3-3 2-7-1-8-1-2-1-23-3-15-8-3-10-2-11-7-1-4-3-1-3-10-2-29 1-8 3-6 8-7 18-11 3-4 2-7 1-14 9-16 8-12 3-3 4-7 6-8 9-11 7-9 6-7 3-4h2v-13l2-23 1-5h2l1-8 7-13 4-5 11-6z" fill="#0E0E0E"/>
<path transform="translate(478,348)" d="m0 0h2v2l5 2 10 9 11 9 14 11 12 7 3 4 3 1v2l4 1 24 14 8 5 6 2v2l9 3 25 11 10 2v4l-7 2-7 9-3 11v8l2 8 3 6 9 6 10 1 8-3h2l1-3 5-5 5-6h2l3-10h2v-19l46 2h34l29-3 17-4 18-5 3 1-6 7-4 6-4 5-3 5-2 4-2 7-3 14-1 1-1 11v27l2 14 7 30 5 13 2 1 2 13 2 9v7l-5 18-3 8-2 7-1 8-3 8-3 10-3 6-7 21-10 24-5 1-10-4-9-3-8-3-16-2-10-2h-10l-18 2-3 1-12 1-6 2h-4v2l-10 4-26 16-9 7-6 3-5 4-7 6-8 7-13 12-7 8-5-1-4-2-3-3-4-1 1-4 2-4h3l2-7h2l2-6 8-16 7-20 5-17h2l3-9 1-2v-6l-1-2h-8l-5 8-10 40h-2l-1 6-9 16-4 6-1 3h-2l-2 5-2 3h-2l-1 3-10 1-7 5-3-1-4-33-4-21-4-12-8-19v-2h-2l-4-10-13-22-9-13-8-9-16-16-13-9-10-6-8-3-5-1h-30l-3-5 3-7 6-12h2l4-10h2l3-10 5-9 2-2 20-2 8-2 13-1 5-1 5 3 6-2 1-4-5-3h-7-3l-2-1h-14l-17 3h-6v-5l6-8 4-5 5-12 2-13v-21l8-4h2v-2l8-4 13-12 6-8 2-3 4-19 7-27 2-4 3-22 2-17z" fill="#FDFDFD"/>
<path transform="translate(558,27)" d="m0 0h9l5 3 10 4 11 5 11 6 13 9 12 7 6 5 5 5 6 4 3 3 13 3 5 4h26l14 1 5 2 22 2 12 5 5 1 4-2 12-3 11-4 5-2h3v-2l12-5 9-3 10-5 17-4h10l4 4 2 7v20l-2 10-3 11-3 8-5 13-1 7-4 18-2 7-2 6-1 7v11l4 15 3 9 3 14 1 8v15l-5 1h-17l-1 1-22 2-24 7-6 3-2 2v6l1 1h39l23 2 9 1-1 8-3 7-8-4-6-2-5-3-13-2-4-2-6 1v7l6 2 9 2 16 8 7 2-1 4-2 4-4 4-4 5-5-2-4-4-16-9-12-6v-2l-5-2-2-1h-7l-1 6 4 5 16 8 19 11 5 1-1 4-9 7-6 3-1 2-10 4-3 3-15 5-8 3-16 2-31 1-17-1-16-3-19-3-15-4-15-6-8-3-9-4-7-3-9-4-10-7-16-11-8-8-7-6-6-9 13-6 9-4 11-4h3v-2l16-5 12-1v-2h2l-1-6h-16l-15 5-3 2-13 4-11 4-5 2-6 4h-5l-4-7-2-11 2-2h9v-2l11-2 5-2 16-4 11-2h35l2-3h2l-2-6-3-2-13-2-3-1v-2l-5-1-14-6v-2l-10-2-8-2-15-1-21 1 1-11 2-16 5-16 4-9 3-5h2l2-5 3-3 2-4-1-10-6-22-1-14h-2l-1-21v-18l1-17 7-15 5-5z" fill="#FDFDFD"/>
<path transform="translate(595,495)" d="m0 0h24l18 4 16 8 12 8 8 8 10 13 7 15 4 12 2 10v18l-2 15-3 9-5 12-7 11-7 8h-2v2l-6 5h-2v2l-15 9-15 6-15 3h-20l-15-3-11-4-15-8-13-11-9-11-8-13-5-14-3-13v-24l5-21 8-15 10-13 12-11 15-9 13-5z" fill="#3F3F3F"/>
<path transform="translate(688,718)" d="m0 0h17l18 3 20 6 13 8v10l-5 30-5 6-8-1-12-4-5-1h-30l-8 2v5l1 1h34l9 2 9 4 6 3v9l-8 26-11 27-4 8-12 16-20 20-8 6-18 10-8 3-9 2-6-4-6-8-9-15-14-26-11-15-8-11-11-10-14-10-4-5v-14l4-8 15-15 11-9 15-14 12-9 18-11 10-6 17-6 18-4z" fill="#3ABCB2"/>
<path transform="translate(365,609)" d="m0 0 6 1h13l11-1 11 3 11 7 10 7 10 8 9 9 7 6 10 15 12 21 6 10 5 12 6 16 9 36 1 8v16l-3 5-6 5h-2l-2 4-9 7-20 16-10 9-8 7-5 3-4-1-2-15-6-17-7-10-8-10-9-12-12-12-9-7-8-8-14-9-15-8-11-7-5-2-2-3v-7l8-31 5-13 4-13 5-13 6-12 11-19z" fill="#3ABCB2"/>
<path transform="translate(516,856)" d="m0 0h2v18l4 16 8 16 8 12 9 9 12 7 25 7 8 2 1 2-7 15-5 14-6 23-7 21-8 16-8 10-9 8-13 4h-10l-15-4-11-6-4-4v-2l-3-1-9-14-5-12-2-11-1-37-4-16v-28l4-13 7-12 8-11 13-14 5-5 11-9z" fill="#979796"/>
<path transform="translate(530,104)" d="m0 0 1 2-13 18-8 14-4 10-4 11-1 5-1 16v19l1 2 1 16 1 3 2 42 6 2 3 3 7 14 10 13 23 23 4 2 5 5 11 7 9 5 3 3 11 6 8 3v2l6 2 9 4 7 2 6 3 22 5 30 5 19 2h48l42-1v-2l6-3 9-2 11-6 8-6 8-4 7-6 8-7 10-8 3-5 2-3h2l1-7 5-10 3-9h2l1-6 4-14 3-1v-7l3-20v-31l-3-21-4-15-8-20-1-3h-2l-3-7-7-11-9-12-1-3 2-3h2l3 6 3 3 10 14 3 5 2 1 6 12 8 14 7 20 2 16 1 12v25l-2 20-3 8-2 8 1 14-6 18-10 17-3 9-5 5h-13l-4 5-5 4-1 2h-3l-1 3-11 8-6 5-8 5-2 2-9 3-7 3-17 5-16 3-19 2-19 1h-27l-40-4-10-3-11-2-17-5-9-3-2-1v-2l-6-1-11-4-9-5-11-7-4-2-4-4-5-2-5-5-7-4-22-22-5-4-9-11-1-3-3-1-5-9-10-16-2-4v-8l2-5-5-1-2-1v-2h-7l-1-2-1-11-1-29v-21l1-19 4-14 3-4h2l2-7 9-14 4-7h2l1-4h2l1-4 9-10 4-1v-2z" fill="#FCFCFB"/>
<path transform="translate(273,794)" d="m0 0 3 1 2 18 5 18 6 15 8 16 11 11 10 7 22 12 8 4 3 4-6 10-8 11-6 5-14 8-6 5-11 20-8 7-5 3-6 1h-17l-12-3-12-6-12-10-9-14-4-10-2-11v-25l4-17 9-21 10-16 5-9 10-15 11-11z" fill="#979796"/>
<path transform="translate(914,417)" d="m0 0 3 1 9 17 10 15 11 10 14 8 13 4 12 3-2 6-8 16-6 11-7 10-5 9-14 19-9 12-7 10-4 4-10-1-14-8-4-5-8-7-8-9-7-10-8-18-1-5v-18l5-15 6-17 11-18 8-8 11-9z" fill="#979796"/>
<path transform="translate(955,330)" d="m0 0h6l4 3 1 11 2 4 6 1h3l2-4h2v-5l4 4 2 9 7 1 4-4 3-5 7-3h13l6 11-1 7-4 5-4 4v6l5 2h3v-2l6-1 2-4h10l7 5-1 7-2 6-5 2-2 4-11 5-1 1 1 7 4 1 15-1 1 5-9 11-10 8-9 6-6 1-8 5-5 5-2 7h-2l-2 4-5 6-14-1-8-4-9-3-10-8-8-9-7-10-6-5-1-2v-7h2l-2-7v-10l9-19 4-7 2-19 2-13 4-8z" fill="#FDFCFC"/>
<path transform="translate(307,162)" d="m0 0h6l7 8 8 20 6 1 4-6 2-5 2-2 7-1 6 3 1 2 1 10v15l-3 9-4 4-1 3 3 1v2h2v2h2l4 13 2 11v4h2v5l-6 8-7 6-9 6-13 6-15 4-14 4h-9l-4-8-3-12v-7l-3-6-14-7-7-2-11-9 1-12-6-8-3-7v-8l4-2 13 1v-2h2l2-7-1-8-1-7 3-5 3-2h9l8 7 6 5h7l3-1 1-17 5-8z" fill="#FDFDFC"/>
<path transform="translate(367,273)" d="m0 0 3 1 4 9 8 17 9 14 4 5 8 7 8 6 2 4-10 18-11 12-14 10-13 11-8 5-18 6-15 6-9 1-5-4-5-8-4-19-2-15-4-17-4-14-3-17v-7l16-2 15-4 26-10 16-10z" fill="#979796"/>
<path transform="translate(483,279)" d="m0 0h2l6 11 14 21 12 13 10 10 7 8 10 10 7 2 7 7 13 8 14 8 33 17 19 6 17 3 14 3 18 2 39 1 26-1 28-3 19-5 17-7 12-6v13l-2 6-7 8-21 10-16 5-24 4-19 2h-23l-43-3-36-6-17-4-15-6-22-10-20-11-24-16-10-7-14-12-10-9-8-6-3-3-6-20-2-5-1-7-2-30z" fill="#279C93"/>
<path transform="translate(323,731)" d="m0 0 5 1 14 7 14 10 11 9 9 8 11 9 9 9 14 20 5 8 6 13 3 13v5l-4 3-21 6-13 8-5-1-8-15-8-10-7-8-11-14-9-12-15-16-12-10-8-1-1-3 6-7h2l2-4 7-10 2-6 1-11z" fill="#3D3D3D"/>
<path transform="translate(545,542)" d="m0 0h8l19 4 31 9 26 9 2 1-3-9-3-3 8-4 18-5 10-2h10l5 3-1 6-4 6-9 11h-2l-2 4-16 15-12 11-11 9-4 4v2h9l3-1-3 21-4 15-6 11-3 2-5-1-5-9-6-16-8-29-7-31-4 4-1 6-6-4-13-12-8-8-6-10-1-6z" fill="#FEFDFD"/>
<path transform="translate(121,418)" d="m0 0h9l15 3 9 4 11 8 7 6 14 20 6 8 2 1 5 9 7 10 6 11 4 7-6 9-5 5-11 8-7 3-9 3-2 3-5 2-5-1-4-16-4-11-2-3-4-13-5-9-11-14-16-14-4-3v-2h-2l-4-8-1-4v-13l5-7z" fill="#FDFDFD"/>
<path transform="translate(297,777)" d="m0 0 7 3 8 6 22 22 5 8 12 16 10 11 8 10 5 7 1 9-3 7-2 3h-2l-2 4-6 6h-7l-13-5-18-12-12-12-4-3v-2h-2l-10-16-4-11-6-28-1-2h-2l1-4-2-7 5-5 8-4z" fill="#3D3D3D"/>
<path transform="translate(273,191)" d="m0 0 7 1 3 2 28-1 7-1 14 2h3l1-2 8-1 5 6v10l-3 8-5 3 2 9-1 7-10 10h-17l-3 1-5 10-10 9-2 1h-8l-5-4-1-6 2-5v-4l-6 3h-6l-9-4-5-4-4-13-1-9 4-6h3v-2h3l2-5 3-6 2-5h2z" fill="#FEF2EC"/>
<path transform="translate(859,454)" d="m0 0 6 1-1 5-3 5-2 7-3 7-1 6-1 27 3 16 5 12 5 7 2 1 3 5 7 7 8 7 3 2v2h2l5 5 19 4v3l-8 6-15 6-12 3-21 3-5-1-6-5-6-15-5-8-8-21-3-16v-16l2-14 5-18 5-12 8-9 5-9z" fill="#FDFCFC"/>
<path transform="translate(226,525)" d="m0 0h3l9 18 5 5 5 9 6 8 3 3 1 4h-2l-2 5-9 18-2 5-7 12-7 10-4 1-1 3-5-1-8-7-4-5-5-5-9-10-3-5-4-10-8-13-3-6-3-14 8-3h12l18-4 1-3 8-6z" fill="#FDFDFC"/>
<path transform="translate(822,429)" d="m0 0 5 1 7 12 7 9-2 5-7 9-7 12-6 17-3 19-1 9v12l4 23 4 11 7 15 8 14-2 5-11 2h-12l-2-3-4-23-8-26-5-17-4-24v-19l4-19 8-17 7-11 11-14z" fill="#39BBB1"/>
<path transform="translate(426,341)" d="m0 0 9 2 9 4-3 10-8 18-4 16-5 10-6 7h-2v2l-6 4-14 10-17 8-8 5-4 4-12-2-7-3-11-6-8-5-4-7v-2l8-3h2v-2l14-3 15-6h2l1-3 10-5 5-5 5-3 10-8 13-13h2l2-5 4-7h2l3-9z" fill="#FCFBFB"/>
<path transform="translate(722,461)" d="m0 0h14l2 5v4l-9 2-1 1 7-1 10 7 8 7 4 7 1 4v18l-4 7-8 8h-2v2l-12 4h-14l-8-2-11-7-4-4v-3h-2l-3-9 2-14 4-10 5-6h3l1-3 3-2h4v-2l13-2v-3l-5-1 1-6z" fill="#0D0D0D"/>
<path transform="translate(265,574)" d="m0 0 4 1 10 9 11 5 4 4 1 4-6 17-4 22-3 10-5 13-1 1-10-1-10-4-9-7-10-8-6-5 1-4 10-14 11-21 8-16z" fill="#FAD093"/>
<path transform="translate(560,832)" d="m0 0 5 2 8 6 10 8 11 17 15 24 7 11 12 16 3 5v2l-6 2h-14l-13-5-13-8-12-11-6-8-6-15-4-15v-23z" fill="#3D3D3D"/>
<path transform="translate(830,80)" d="m0 0 7 1 3 3 2 7v14l-3 13-5 12-4 11h-2l-1 7-4 7-1 2h-2l-2 4-3 3-7 2-6-5-2-4v-5l-10-1-8-5v-7l11-21 8-11 4-5 5-5 4-5 10-10z" fill="#121212"/>
<path transform="translate(455,352)" d="m0 0 7 1 1 1-1 16-4 22-4 18-5 14-3 13-7 8-13 10-11 10-2 1h-7l-10-7-15-10-2-3 5-3 19-10 18-13 10-9 4-6 3-4 7-25 8-23z" fill="#39BBB1"/>
<path transform="translate(304,601)" d="m0 0 10 1 14 3 12 2 7 3 1 1-1 7-5 12-6 17h-2l-2 5-3 8-6 10-12-1-5-2-18-5-2-1v-6l3-4 3-12 1-7 2-12 4-12 3-1z" fill="#FDFDFD"/>
<path transform="translate(549,49)" d="m0 0 5 1 4 2 3 5 8 7 9 12 8 11 3 5 1 7h2l3 5v3l3 1 1 6-1 4-8 4-17 6-6 2-5 2-7-3-3-3-1-9-1-2-2-14v-12l-1-6v-22l1-10z" fill="#121212"/>
<path transform="translate(543,840)" d="m0 0h4l1 5 1 18 6 21 5 12 8 12 7 7 13 8 6 2 9 4-1 5h-11l-12-2-10-5-8-3-11-7-8-7-6-10-8-29-1-13 2-8 5-4z" fill="#3D3D3D"/>
<path transform="translate(682,238)" d="m0 0h6l5 4 5 2h8l1-1 10 1h7l3 4-1 5-3 3h-3v2l-7 3-12-2-1 11v11l4 5 9 7h19l2 4-1 3-5 4-17 1-8-3-11-12-7 4-6 4-5 1h-8l-8-4-5-5-2-3v-5l4-2 5 1 1 3 5 1h10l7-2 2-8 3-5 1-10v-4l-9-3-3-3-1-7 4-4z" fill="#151515"/>
<path transform="translate(307,162)" d="m0 0h6l7 8 8 20 6 2-4 3-16-2-3 1-28 1-5-3h-5l-4 4-3 9-4 6h-3v2l-3 1-3 5 1 10 4 12 7 5 6 2 9-1 4-2-2 14 5 5 8 1v1h-12l-2-4-14-7-7-2-11-9 1-12-6-8-3-7v-8l4-2 13 1v-2h2l2-7-1-8-1-7 3-5 3-2h9l8 7 6 5h7l3-1 1-17 5-8z" fill="#FBFAFA"/>
<path transform="translate(314,210)" d="m0 0h13l8 5 5 7 1 3v9l-7 9-2 1h-17l-3 1-5 10-10 9-2 1h-8l-5-4-1-6 5-12 5-5 6-2 9 1v-14l4-9z" fill="#FCC8BC"/>
<path transform="translate(602,568)" d="m0 0h16l12 1-1 7-8 17-8 12-3 4-4-2-8-10-10-16-3-6v-4l8-2z" fill="#434343"/>
<path transform="translate(826,93)" d="m0 0h5l2 6-2 13-5 15-8 16-3 4-6-1-9-5-5-5 2-6 8-11 7-10 11-12z" fill="#F6AE7F"/>
<path transform="translate(721,482)" d="m0 0h9l10 5 7 9 2 8-1 10-7 9-5 2h-11l-8-6-3-3 1-5 2-2 5 1 6 1 2-2 7-3 4-7-1-5-2-3-7-2h-11l-5 3-3 1-4 10v18h-3l-3-5-1-4v-9l4-9 6-7 7-4z" fill="#279C93"/>
<path transform="translate(557,67)" d="m0 0 5 2 9 14 14 24-1 4-18 10h-4l-4-9-1-5-1-39z" fill="#F7AE7F"/>
<path transform="translate(755,216)" d="m0 0h13l10 4 7 6 4 8-1 5-6 5h-6l-3-3-2-8-4-2-1-3-12 2-8 4-3 5-5 1-6-2-1-5 7-10 12-6z" fill="#141414"/>
<path transform="translate(466,208)" d="m0 0h2l1 21v25l-2 4-10-1-4-2-3-7-1-17-1-6v-10l3-3z" fill="#FAF7F6"/>
<path transform="translate(903,306)" d="m0 0 9 2 8 5 1 4-4 10-6 12-6 10-3 1v2l-4 1-9-1-2-2 1-9h2l3-9 4-8 4-11z" fill="#FCFBFB"/>
<path transform="translate(628,201)" d="m0 0h17l9 4 9 8 5 9v7l-4 3h-7l-4-4-2-3-2-8-5-3-5-1-9 2v2l-6 3-8-1-3-3 1-6 8-6z" fill="#171717"/>
<path transform="translate(534,230)" d="m0 0h23l19 4 9 3 1 3-20 2-35 10-4-1-1-2v-16l2-2z" fill="#FCFBFB"/>
<path transform="translate(997,396)" d="m0 0h7l5 4 3 6v9l-4 6-9 8-4 2-6-1-6-5v-7l5-7 2-1 3-10z" fill="#FCC8BC"/>
<path transform="translate(674,50)" d="m0 0h31l3 1h11l11 3 7 1 10 4 14 5 13 5 3 1v2h2v3l-6-1-9-5-4-1-5-1-10-4-23-6-5-1-30-1-26 2-11 2h-9l-2-2 3-2 17-3 13-1z" fill="#FBF8F7"/>
<path transform="translate(962,384)" d="m0 0h7l8 3 5 6v9l-5 5-8 1-7-3-5-6v-10z" fill="#FCC8BC"/>
<path transform="translate(625,453)" d="m0 0h3l2 8 2 1h10l-1 11-9 4-10-3-3-3v-12l3-5z" fill="#F1AD81"/>
<path transform="translate(219,514)" d="m0 0 4 1-1 5-6 8-10 7-12 5-9 1v-2l19-9 6-5 6-7z" fill="#E8C593"/>
<path transform="translate(722,461)" d="m0 0h14l2 5v4l-9 2-1 1 7-1 3 3h-26v-1l13-2v-3l-5-1 1-6z" fill="#202020"/>
<path transform="translate(636,439)" d="m0 0 11 1 1 5-1 10-10-3-6-4 2-5z" fill="#FBF9F9"/>
<path transform="translate(814,265)" d="m0 0h17l6 1-1 8-15-2-16-4-1-2z" fill="#FEFCFB"/>
<path transform="translate(426,531)" d="m0 0h14l4 2 1-1h7l5 3 1 3-4 4-4 1-8-4 2-1-3-4-6-1-18 1v-1z" fill="#3B3B3B"/>
<path transform="translate(906,323)" d="m0 0 5 1 1 5-5 9-5 3-4-1-1-4 5-6 2-6z" fill="#585857"/>
<path transform="translate(672,51)" d="m0 0 4 2-1 2-25 4h-9l-2-2 3-2 17-3z" fill="#FEFBFA"/>
<path transform="translate(674,50)" d="m0 0h31l2 2-6 1 5 1v1h-31z" fill="#FEF5F1"/>
<path transform="translate(682,41)" d="m0 0h32l6 1v1l-20 1h-43v-1l16-1z" fill="#A7A6A6"/>
<path transform="translate(459,222)" d="m0 0 2 1v3l5 2v6l-3 5-3 1-2-5-2-2v-6z" fill="#4A4A4A"/>
<path transform="translate(560,12)" d="m0 0 9 1 6 2-4 1h-16l-5 2-10 10-4 2 2-5 4-5 11-6z" fill="#9D9B99"/>
<path transform="translate(340,234)" d="m0 0 1 3-7 8-3 1h-17l-3 5-4 6-4 3-2-1 6-5 5-10 4-1h16l5-5z" fill="#FEF2EC"/>
<path transform="translate(283,340)" d="m0 0h2l1 9 1 1 3 21 1 22-2-3-1-18-4-21z" fill="#9E9B9A"/>
<path transform="translate(300,412)" d="m0 0 4 2 5 4 3 6 5 6v2l2 1-4-1-5-5-10-14z" fill="#979594"/>
<path transform="translate(228,493)" d="m0 0 3 1 2 7 6 7 5 11-1 4-2-7h-2v-3h-2l-1-6-3-1-4-7z" fill="#B1AEAC"/>
<path transform="translate(289,159)" d="m0 0 1 4-3 5-5-1-7-1v-2l-10-1v-1h12l2 1 9 1z" fill="#7E7D7C"/>
<path transform="translate(763,66)" d="m0 0 14 4v2h2v3l-6-1-9-5z" fill="#EEEAE8"/>
<path transform="translate(689,50)" d="m0 0h16l2 2-6 1 5 1v1h-15l2-4z" fill="#C6C1BE"/>
<path transform="translate(327,154)" d="m0 0 8 6 4 1 7-2 6 1v1l-8 2-4 2h-4l-9-9z" fill="#CECBC9"/>
<path transform="translate(908,603)" d="m0 0h6l-4 3-13 4-9 1v-2l13-4h7z" fill="#ADABAA"/>
<path transform="translate(273,561)" d="m0 0 5 3 12 9 3 5-5-2-5-5-10-6z" fill="#AFACAB"/>
<path transform="translate(580,17)" d="m0 0 6 2 13 6 12 7-2 1-15-8-8-3-6-4z" fill="#8E8C8B"/>
<path transform="translate(905,325)" d="m0 0h5l1 3-2 6h-2l-1 2-2-4z" fill="#080808"/>
<path transform="translate(721,468)" d="m0 0h5v4l5 1 4-1 3 3h-26v-1l13-2v-3z" fill="#636362"/>
<path transform="translate(624,42)" d="m0 0 5 1v2l23-1-1 2-21 1-4-1v-2h-2z" fill="#C5C1BF"/>
<path transform="translate(547,17)" d="m0 0 3 1-10 10-4 2 2-5 4-5z" fill="#767776"/>
<path transform="translate(721,43)" d="m0 0h9l17 4v1h-8l-10-2-1-1-7-1z" fill="#A4A09E"/>
<path transform="translate(767,750)" d="m0 0 1 3-3 12-2 10h-1l1-16z" fill="#CAC8C7"/>
<path transform="translate(809,624)" d="m0 0h2l-1 5-4 11-3 8-1-3 5-16z" fill="#ACAAA8"/>
<path transform="translate(1011,324)" d="m0 0 11 1 2 2h-8l-7-1v2h-5l-1-2z" fill="#A09D9B"/>
<path transform="translate(674,50)" d="m0 0h13v1l-8 1 8 2v1h-12z" fill="#BBB7B4"/>
<path transform="translate(717,886)" d="m0 0v3l-8 9h-2l-2 4-2-1 7-8z" fill="#E0DDDB"/>
<path transform="translate(1063,387)" d="m0 0 1 2-1 7 2 9h-2l-2-7-1-1v-6z" fill="#ACABAA"/>
<path transform="translate(840,424)" d="m0 0 4 4 5 8h-4l-4-6z" fill="#A19F9E"/>
<path transform="translate(861,83)" d="m0 0h1l1 13-2 6h-1v-12z" fill="#DDDDDC"/>
<path transform="translate(280,255)" d="m0 0 2 4 5 5 8 1v1h-12l-2-4-2-2z" fill="#FEF2EC"/>
<path transform="translate(236,508)" d="m0 0 2 1v2l3 1 3 7-1 4-2-7h-2v-3h-2z" fill="#ABAAA9"/>
<path transform="translate(346,159)" d="m0 0 6 1v1l-8 2-6 2 3-5z" fill="#D5D3D1"/>
<path transform="translate(287,979)" d="m0 0 3 1-5 2-10 1 1-2z" fill="#B0AEAD"/>
<path transform="translate(248,532)" d="m0 0 5 4 3 5-1 2-4-4v-2h-2z" fill="#C2BEBC"/>
<path transform="translate(588,992)" d="m0 0 1 4-4 12h-1v-7h2l1-8z" fill="#ADABAA"/>
<path transform="translate(658,928)" d="m0 0h6l-3 2-11 4v-2h2v-2z" fill="#AEACAB"/>
<path transform="translate(117,419)" d="m0 0 2 1-9 9-1-2 5-7z" fill="#C7C4C3"/>
</svg>
